<?xml version="1.0" encoding="UTF-8" standalone="no"?>
<!-- Created with Inkscape (http://www.inkscape.org/) -->

<svg
   viewBox="0 0 210 210"
   version="1.1"
   id="svg1"
   xml:space="preserve"
   inkscape:version="1.3.2 (091e20e, 2023-11-25, custom)"
   sodipodi:docname="avatar.svg"
   xmlns:inkscape="http://www.inkscape.org/namespaces/inkscape"
   xmlns:sodipodi="http://sodipodi.sourceforge.net/DTD/sodipodi-0.dtd"
   xmlns="http://www.w3.org/2000/svg"
   xmlns:svg="http://www.w3.org/2000/svg"><sodipodi:namedview
     id="namedview1"
     pagecolor="#ffffff"
     bordercolor="#000000"
     borderopacity="0.25"
     inkscape:showpageshadow="2"
     inkscape:pageopacity="0.0"
     inkscape:pagecheckerboard="false"
     inkscape:deskcolor="#d1d1d1"
     inkscape:document-units="mm"
     inkscape:zoom="0.72426347"
     inkscape:cx="396.26464"
     inkscape:cy="340.34576"
     inkscape:window-width="1920"
     inkscape:window-height="1009"
     inkscape:window-x="-8"
     inkscape:window-y="-8"
     inkscape:window-maximized="1"
     inkscape:current-layer="layer1"
     showgrid="true"
     showguides="true"><inkscape:grid
       id="grid1"
       units="mm"
       originx="0"
       originy="0"
       spacingx="0.99999998"
       spacingy="0.99999998"
       empcolor="#0099e5"
       empopacity="0.30196078"
       color="#0099e5"
       opacity="0.14901961"
       empspacing="5"
       dotted="false"
       gridanglex="30"
       gridanglez="30"
       visible="true" /><sodipodi:guide
       position="25.571955,144.97417"
       orientation="1,0"
       id="guide1"
       inkscape:locked="false" /><sodipodi:guide
       position="185.21402,102.23247"
       orientation="1,0"
       id="guide2"
       inkscape:locked="false" /></sodipodi:namedview><defs
     id="defs1" /><g
     inkscape:label="Layer 1"
     inkscape:groupmode="layer"
     id="layer1"><rect
       style="fill:#5a5a5a;fill-opacity:1;stroke-width:1.27;stroke-miterlimit:0"
       id="rect1"
       width="209.69005"
       height="209.32471"
       x="1.6715694e-07"
       y="0.36531132"
       ry="0" /><g
       id="g1"
       transform="matrix(0.35277768,0,0,0.35277768,26.905038,28.047936)"><path
         id="outer"
         fill="none"
         stroke="#000000"
         stroke-width="1"
         d="m 330.56,27.88 c 0,0 -99.74,-62.15 -218.2,0.3 C 66.5,59.5 3,106.5 1,214.5 0,276 26,319.09 30,327 c 9.82,-17.45 54.27,-76.36 135.5,-83 19.88,-0.12 78.62,26.38 129.32,28.45 20.91,-0.54 65.43,-8.7 104.91,-47.63 25.63,-20.55 21.82,-20.91 35.82,-28.55 14,-7.63 23.81,-10.54 32.72,-14.91 8.91,-4.36 15.46,-23.45 1.64,-35.27 -13.82,-11.82 -35.64,-3.27 -47.64,2.91 -12,6.18 -47.45,28 -63.45,45.45 -16,17.46 -47.27,23.1 -73.09,24.55 -25.09,-2.18 -51.64,-8 -59.82,-11.45 -8.18,-3.46 -72.36,-26 -119.64,-20.19 12.37,-10.18 51.64,-42.54 122,-23.81 46,8.54 88.55,15.45 139.82,-26.19 C 384.27,121 401,102.64 404.64,92.27 399,84.82 370.45,55.73 367.73,53.55 c -2.18,6.72 -29.73,91.7 -151.98,58.95 -3.62,0.07 -5.62,-0.59 -12.01,-0.07 -0.61,0.18 86.14,-16.81 115.14,-65.81 4.24,-6 7.99,-12.62 8.76,-13.78 1.16,-1.73 2.92,-4.96 2.92,-4.96 z M 38.5,342.75 c 0,0 38.25,42.25 38.25,42.25 0,0 29.89,-44.18 73.16,-51.82 9.27,-2.73 42.91,-6.36 61.09,0.18 18.18,6.55 98.88,29.64 151.12,0.14 -12.74,14.88 -40.21,50.41 -98.21,48.23 -25.13,-2 -103.27,-18 -143.27,28.91 C 146.33,441.67 411,492.33 443,229 c -34,38.67 -95.33,112 -225.33,60 -32,-11.33 -112,-26 -171.34,44.67 -4.16,4.37 -7.83,9.08 -7.83,9.08 z M 330.53,27.84 C 330.2,27.93 312.45,45.55 258.82,49.18 238.45,49.36 76,33.5 33,209.5 c 7.55,-4.95 17.73,-12.05 17.73,-12.05 0,0 57.77,-95.2 153.01,-85.06 10.44,-2.39 86.64,-19.2 115.17,-65.75 3.28,-4.64 11.96,-18.88 11.62,-18.8 z M 30,326.87 c 1.61,-2.61 42.09,-74.23 135.52,-82.91 -17.79,-4.6 -98.12,-23.52 -151.39,48.3 7.04,19.61 15.26,33.31 15.87,34.61 z"
         style="display:none;stroke:#fbf9f5;stroke-width:1.008;stroke-dasharray:none;stroke-opacity:1"
         inkscape:label="outer" /><path
         style="fill:#fbf9f5;fill-opacity:1;stroke:none;stroke-width:0.716687"
         d="M 16.243881,378.31868 C 6.1465741,347.2411 1.9508798,317.74373 2.7146621,283.20299 3.2787733,257.69202 5.622318,239.17009 11.125763,216.7268 25.91591,156.41196 58.873593,107.76657 114.09277,64.747984 130.81404,51.721246 149.05386,39.278598 158.0294,34.775747 195.7659,15.84409 233.92952,5.3176062 276.2827,2.1585226 326.37617,-1.5779028 383.8252,9.693745 428.75778,32.074527 c 5.22285,2.601488 9.49609,4.949791 9.49609,5.218452 0,0.831763 -7.39351,5.448493 -14.06482,8.782493 -11.24858,5.621501 -26.19164,10.433153 -42.55342,13.702164 -18.30589,3.657436 -24.40752,4.150058 -58.7683,4.744722 -38.42761,0.665048 -53.46259,2.124648 -78.11885,7.583802 -102.25582,22.640515 -170.09744,89.87392 -199.260368,197.47397 -1.564892,5.77385 -2.845258,10.69211 -2.845258,10.92947 0,1.07003 1.953156,-0.0885 13.469872,-7.98951 11.930626,-8.18501 12.396136,-8.59913 16.606774,-14.77323 27.54781,-40.39362 69.67926,-76.15507 109.73764,-93.14606 22.56547,-9.57126 45.61015,-14.40248 68.74152,-14.41137 29.16886,-0.0112 33.41578,0.3397 50.66646,4.18632 50.68738,11.30247 93.21315,7.96967 127.73937,-10.01112 26.16068,-13.62413 48.3696,-38.41923 59.49667,-66.424959 0.90053,-2.266522 1.87971,-4.120948 2.17599,-4.120948 0.6361,0 32.56728,33.075837 40.85898,42.323717 3.15545,3.51931 5.73718,6.73322 5.73718,7.14199 0,1.80559 -4.70122,9.7725 -9.5824,16.23878 -12.21967,16.18784 -34.72771,40.19755 -44.91783,47.91462 -38.33245,29.02948 -77.57131,41.09196 -122.52136,37.6645 -17.61536,-1.34319 -47.91575,-5.95407 -61.63505,-9.37915 -48.30408,-12.05934 -96.39813,-6.39789 -133.43562,15.70752 -8.27841,4.94088 -17.98899,11.77692 -23.24934,16.36706 l -3.4945,3.04928 7.52521,-0.54088 c 10.4331,-0.74988 31.69389,-0.50406 41.56782,0.4806 33.00134,3.29102 75.30277,13.20471 109.17673,25.58647 12.59586,4.60411 28.56306,8.62402 46.34427,11.66769 28.77985,4.92634 38.2693,5.48903 56.2599,3.33601 24.42476,-2.92303 45.22409,-8.71203 59.84333,-16.65599 7.63882,-4.15086 12.96489,-8.31017 21.92527,-17.12221 24.86277,-24.45112 74.73246,-57.24642 99.55626,-65.47016 6.99776,-2.31825 17.41893,-4.36408 22.12885,-4.34423 4.61985,0.0195 12.58333,1.94447 16.7361,4.04558 4.88751,2.47286 11.19336,9.11099 13.65477,14.37428 1.70117,3.63766 1.93811,5.02254 1.94148,11.34736 0.004,6.88197 -0.11615,7.44681 -2.68,12.63442 -3.98252,8.05808 -5.77877,9.33851 -23.84948,17.00066 -16.45563,6.97734 -28.94806,13.17988 -36.97686,18.35913 -2.60803,1.6824 -9.21947,7.04492 -14.69208,11.91671 -5.4726,4.8718 -12.85278,11.26106 -16.40038,14.19837 -3.54759,2.93731 -9.70091,8.29219 -13.67405,11.89973 -33.24434,30.18534 -67.69929,47.73474 -109.95439,56.00453 -8.42763,1.64938 -11.52362,1.89801 -24.009,1.92814 -15.35502,0.0371 -22.1722,-0.69679 -42.65171,-4.59126 -19.65867,-3.73836 -38.64345,-8.68385 -77.03496,-20.06741 -24.61608,-7.29897 -36.41372,-10.36935 -44.07623,-11.471 -6.88881,-0.99042 -11.31667,-1.80215 -21.50059,-3.94159 -25.75512,-5.41063 -55.11389,-6.05718 -79.85493,-1.7586 -27.15001,4.71711 -53.096013,16.01477 -74.34065,32.37012 -8.158598,6.28096 -22.017224,19.67539 -28.403448,27.45206 -2.589596,3.15342 -5.105561,6.17592 -5.591032,6.71666 -0.716062,0.79758 -1.426463,-0.69052 -3.763529,-7.88355 z"
         id="path1"
         transform="scale(0.7500002)" /><path
         style="display:inline;fill:#fbf9f5;fill-opacity:1;stroke-width:0.716687"
         d="m 271.26589,579.74906 c -29.63959,-2.38193 -59.01421,-8.29953 -80.03466,-16.12319 -9.93164,-3.6965 -21.85654,-9.93067 -25.76597,-13.47009 l -3.32188,-3.00749 7.05457,-6.67643 c 19.41026,-18.36983 44.95357,-29.49435 78.41728,-34.15201 11.34501,-1.57906 41.29339,-2.1771 55.98674,-1.118 6.45708,0.46543 20.60914,1.83393 31.44903,3.04111 16.6243,1.85137 21.22095,2.12237 29.3702,1.73158 39.67025,-1.90238 70.64183,-15.10411 98.47258,-41.97423 7.70043,-7.43463 20.51135,-21.69385 20.51135,-22.83019 0,-1.50652 -1.24999,-1.29055 -5.80389,1.00276 -14.43608,7.2699 -30.72232,12.08719 -51.1727,15.13634 -12.21385,1.82109 -49.27484,1.83417 -64.14345,0.0226 -27.18869,-3.31255 -52.3073,-8.75558 -76.98341,-16.68177 -5.48527,-1.76192 -12.90297,-3.70063 -16.48379,-4.30825 -9.26404,-1.57198 -29.80592,-2.09719 -42.09246,-1.07621 -35.58894,2.95735 -58.48655,11.32276 -83.96937,30.67737 -8.79167,6.67741 -29.3243,26.93931 -35.61145,35.1419 -2.49258,3.25197 -4.73432,5.91267 -4.98165,5.91267 -0.36313,0 -36.360543,-39.44515 -46.776608,-51.25675 l -2.665264,-3.02235 9.442697,-10.66567 c 11.386684,-12.86144 19.239406,-20.62777 29.063322,-28.74363 37.342363,-30.84973 85.969753,-46.34137 135.707413,-43.23346 26.31142,1.64409 44.87703,5.66869 71.20712,15.43608 90.56377,33.59544 166.73698,26.30294 230.77309,-22.09324 15.35467,-11.60451 33.55208,-28.779 49.92643,-47.11996 6.14849,-6.88694 9.64464,-10.30236 9.79985,-9.57356 0.13272,0.62316 -0.4605,5.54516 -1.31825,10.93778 -14.03192,88.21833 -48.73619,154.59667 -103.91763,198.76169 -40.3186,32.26941 -89.00328,51.32369 -149.07082,58.34353 -11.56991,1.35213 -50.84802,1.9631 -63.06842,0.98103 z"
         id="path2"
         transform="scale(0.7500002)" /><path
         style="display:inline;fill:#d1c9c0;fill-opacity:1;stroke:none;stroke-width:0.526552;stroke-linecap:butt;stroke-dasharray:none;stroke-opacity:1"
         d="m 30.713628,215.54816 c 0,-0.29735 1.082174,-4.51221 2.404831,-9.36638 15.300447,-60.17869 44.642875,-104.91036 94.162381,-130.8843 21.86888,-11.47065 46.23236,-20.754166 73.65803,-24.87486 15.03472,-2.258952 22.8721,-2.771139 44.79411,-2.927363 17.17726,-0.122413 21.80852,-0.337975 28.45039,-1.324228 20.67018,-3.069313 35.55084,-7.616642 48.55719,-14.838411 3.08439,-1.712619 5.80043,-3.32832 5.80043,-3.175618 0,0.83642 -12.54923,21.050297 -15.40863,24.812891 -18.82522,24.771514 -56.88891,42.783883 -101.0074,58.663169 l -3.70995,1.3353 -13.02454,-0.50924 c -7.18939,-0.28109 -20.57559,1.00736 -28.80896,2.48607 -32.35204,5.8104 -62.46447,23.20223 -90.09153,52.03354 -10.962518,11.44039 -19.041957,21.47011 -27.343603,33.94411 -2.869013,4.31094 -3.776237,5.17175 -10.478848,9.94275 -4.035845,2.87276 -7.476498,5.2232 -7.6459,5.2232 -0.1694,0 -0.308001,-0.24328 -0.308001,-0.54063 z"
         id="path3"
         sodipodi:nodetypes="scsssssssscsssssss" /><path
         style="display:inline;fill:#d1c9c0;fill-opacity:1;stroke:none;stroke-width:0.501013;stroke-dasharray:none;stroke-opacity:1"
         d="m 24.490006,313.00029 c -4.676884,-9.47129 -9.710054,-21.16488 -9.710054,-22.55943 0,-0.96971 6.405169,-8.73374 11.768221,-14.26483 19.844176,-20.46596 43.859954,-32.61284 73.892557,-37.37395 7.43255,-1.17829 26.2052,-1.60427 35.08585,-0.79615 7.45866,0.67872 21.57274,2.82283 22.86673,3.54124 0.43157,0.23959 -1.48452,0.79536 -4.53882,1.19537 -26.3867,3.45576 -54.527859,14.72141 -77.48608,31.01975 -16.703405,11.85795 -32.510848,27.74512 -43.277387,43.49563 l -3.773043,5.51964 z"
         id="path4"
         sodipodi:nodetypes="ssssssssscs" /></g></g></svg>
