<?xml version="1.0" encoding="UTF-8" standalone="no"?>
<!DOCTYPE svg PUBLIC "-//W3C//DTD SVG 20010904//EN"
              "http://www.w3.org/TR/2001/REC-SVG-20010904/DTD/svg10.dtd">

<svg xmlns="http://www.w3.org/2000/svg"
     viewBox="0 0 479 439">
  <path
        fill="none" stroke-width="1"
        d="M 363.10,334.53
           C 355.62,347.50 348.12,354.25 336.88,361.75
             312.79,377.71 286.31,384.33 258.00,384.00
             249.82,384.18 229.82,380.18 220.47,378.48
             210.67,377.52 201.33,377.53 194.00,378.42
             176.19,381.01 138.60,392.05 122.60,409.80
             121.11,411.18 120.42,412.33 119.55,414.00
             131.54,420.05 144.08,425.00 157.00,428.71
             173.02,433.31 195.41,437.80 212.00,438.00
             212.00,438.00 229.00,438.00 229.00,438.00
             260.28,437.95 299.44,426.76 327.00,412.22
             350.28,399.94 371.20,383.53 388.83,364.00
             422.91,326.26 441.40,278.61 443.75,230.11
             436.73,239.45 409.76,266.36 402.55,273.27
             391.54,283.81 379.81,290.37 366.00,296.69
             343.14,307.16 319.88,310.29 295.00,310.00
             263.09,309.45 221.28,290.12 185.25,283.00
             171.89,280.36 156.94,280.44 147.00,282.28
             122.72,285.55 93.89,294.47 74.00,309.00
             59.84,319.34 41.25,340.25 38.43,344.23
             49.39,359.73 62.39,373.75 76.94,385.93
             82.75,376.75 97.24,357.13 124.00,343.75
             158.29,326.61 182.00,326.00 234.75,341.75
             312.25,359.75 351.75,341.50 363.10,334.53 Z
           M 384.00,241.39
           C 371.81,251.42 361.53,256.63 347.00,262.40
             325.40,270.97 302.03,273.27 279.00,273.00
             279.00,273.00 270.00,272.17 270.00,272.17
             257.41,270.91 245.10,268.82 233.00,264.97
             196.61,253.39 177.12,244.62 160.73,245.64
             116.73,252.18 70.66,274.22 42.81,309.00
             37.22,315.98 33.27,322.75 30.04,330.17
             29.00,329.30 28.43,328.91 27.43,327.00
             13.90,303.37 0.04,264.36 0.00,237.00
             0.00,237.00 0.00,201.00 0.00,201.00
             0.10,180.68 9.80,148.53 18.31,130.00
             43.49,75.16 89.23,33.89 146.00,13.69
             160.55,8.52 180.63,4.13 196.00,2.28
             196.00,2.28 206.00,1.42 206.00,1.42
             228.90,-1.36 262.79,3.62 285.00,10.00
             301.07,14.61 315.96,20.75 330.09,28.50
             330.29,28.67 330.34,28.72 330.41,28.95
             320.01,56.08 296.35,78.36 271.00,91.24
             246.78,103.55 220.08,111.21 192.86,114.00
             214.19,113.62 239.47,120.69 266.00,121.00
             298.91,121.38 337.31,108.75 355.09,78.91
             359.04,71.64 364.38,64.81 368.00,54.57
             381.44,66.06 393.80,79.88 404.04,94.26
             404.29,94.76 404.51,95.16 404.50,95.75
             400.12,112.30 372.59,138.43 359.00,148.36
             332.60,167.64 298.94,173.37 267.00,173.00
             264.75,172.97 264.81,172.94 262.45,172.96
             254.62,173.00 247.45,172.64 241.00,173.42
             222.61,176.05 211.22,176.63 194.00,185.78
             189.57,188.14 184.75,191.67 181.23,195.95
             185.33,198.00 256.38,224.38 299.88,220.38
             315.46,218.14 330.90,214.30 345.00,207.24
             352.66,203.41 360.36,195.64 366.37,189.40
             370.27,185.55 378.15,178.66 392.00,168.13
             407.18,156.59 425.46,148.50 444.12,143.12
             452.19,141.28 459.19,143.03 463.21,144.44
             467.84,146.05 471.85,149.17 474.86,154.00
             483.06,167.16 474.77,184.28 460.00,187.48
             430.67,194.00 409.97,220.01 384.00,241.39 Z" style="fill:#e5e5e5;fill-opacity:1"/>
  <path
        fill="none" stroke-width="1"
        d="M 160.73,245.64
           C 164.51,245.40 168.45,245.69 172.73,246.41
             166.62,244.56 166.73,244.00 154.52,241.43
             142.28,239.91 122.74,239.05 113.00,240.33
             85.75,243.92 62.19,250.52 39.00,265.70
             28.87,272.32 19.26,280.77 14.04,291.48
             13.17,293.00 12.87,293.39 12.56,294.68
             17.04,306.69 22.26,317.97 27.43,327.00
             28.43,328.91 29.00,329.30 30.04,330.17
             33.27,322.75 37.22,315.98 42.81,309.00
             70.66,274.22 116.73,252.18 160.73,245.64M 34.49,211.50
           C 36.79,192.10 41.96,173.82 51.37,155.00
             72.94,111.86 111.70,78.83 157.00,62.69
             177.02,55.56 190.49,55.26 210.91,52.36
             237.27,50.91 236.18,51.82 260.63,50.97
             277.70,49.22 293.60,47.98 308.36,42.00
             314.88,39.46 322.22,33.79 328.66,30.13
             329.48,29.61 330.19,29.13 330.41,28.95
             320.01,56.08 296.35,78.36 271.00,91.24
             246.78,103.55 220.08,111.21 192.86,114.00
             182.25,114.50 172.00,114.50 158.00,118.00
             130.06,124.75 100.64,137.67 82.90,161.00
             73.77,173.00 62.97,186.27 51.64,202.27
             44.36,207.36 39.45,208.82 34.49,211.50 Z
           M 181.23,195.95
           C 184.75,191.67 189.57,188.14 194.00,185.78
             211.22,176.63 222.61,176.05 241.00,173.42
             247.45,172.64 254.62,173.00 262.45,172.96
             264.81,172.94 270.50,173.50 264.50,171.62
             243.50,164.00 226.91,160.10 206.00,160.21
             206.00,160.21 184.00,160.21 184.00,160.21
             184.00,160.21 168.00,162.27 168.00,162.27
             151.56,164.69 131.85,170.43 118.00,179.75
             113.96,182.47 110.07,185.79 106.95,189.64
             116.38,188.75 153.50,186.00 181.23,195.95 Z" style="fill:#a8a29e;fill-opacity:1"/>
</svg>
